<?xml version="1.0" standalone="no"?>
<!DOCTYPE svg PUBLIC "-//W3C//DTD SVG 20010904//EN"
 "http://www.w3.org/TR/2001/REC-SVG-20010904/DTD/svg10.dtd">
<svg version="1.0" xmlns="http://www.w3.org/2000/svg"
 width="128.000000pt" height="128.000000pt" viewBox="0 0 128.000000 128.000000"
 preserveAspectRatio="xMidYMid meet">
<metadata>
Created by potrace 1.14, written by Peter Selinger 2001-2017
</metadata>
<g transform="translate(0.000000,128.000000) scale(0.100000,-0.100000)"
fill="#000000" stroke="none">
<path d="M115 1256 c-40 -17 -84 -63 -101 -103 -11 -26 -14 -131 -14 -520 0
-469 1 -488 20 -529 12 -24 39 -54 62 -70 l41 -29 516 0 516 0 36 24 c20 14
47 41 60 60 l24 35 3 485 c2 267 0 501 -3 519 -8 42 -59 100 -110 123 -37 17
-77 19 -530 18 -384 0 -496 -3 -520 -13z m475 -376 l0 -80 -110 0 -110 0 0
-50 0 -50 100 0 100 0 0 -80 0 -80 -100 0 -100 0 0 -45 0 -45 115 0 115 0 0
-80 0 -80 -220 0 -220 0 0 335 0 335 215 0 215 0 0 -80z m530 0 l0 -80 -110 0
-110 0 0 -60 0 -60 100 0 100 0 0 -80 0 -80 -100 0 -100 0 0 -115 0 -115 -105
0 -105 0 0 335 0 335 215 0 215 0 0 -80z"/>
</g>
</svg>
